<svg width="195" height="43" viewBox="0 0 195 43" fill="none" xmlns="http://www.w3.org/2000/svg">
<path d="M55.2106 32.75L69.5 8L83.7894 32.75H55.2106Z" fill="#2196F3" fill-opacity="0.6" stroke="black" stroke-width="2"/>
<path d="M2.68945 34H5.73047V22.5566C5.73047 20.0605 6.75 18.0215 10.0195 18.0215C10.582 18.0215 11.1797 18.0391 11.4961 18.0918V15.332C11.127 15.2793 10.7402 15.2441 10.3535 15.2441C7.73438 15.2441 6.3457 16.6855 5.80078 17.793H5.71289V15.5254H2.68945V34ZM21.8672 34.2988C25.9453 34.2988 28.3887 32.0312 29.0918 28.9727H26.0859C25.4883 30.6953 24.082 31.7676 21.9375 31.7676C18.9316 31.7676 17.1387 29.3594 17.1387 25.8438V25.5098H29.3379V23.7871C29.3379 18.707 26.5605 15.2266 21.7266 15.2266C16.875 15.2266 14.1152 18.707 14.1152 23.5762V25.6504C14.1152 30.9062 17.0508 34.2988 21.8672 34.2988ZM17.1387 23.0664V23.0137C17.1387 20.0957 18.9316 17.7578 21.7441 17.7578C24.5039 17.7578 26.3145 20.0781 26.3145 23.0137V23.0664H17.1387ZM33.5566 34H44.3672C49.043 34 52.7168 31.5566 52.7168 27.1973C52.7168 23.418 49.957 21.5898 47.2852 21.3965V21.1328C49.6055 20.6758 51.5742 18.9531 51.5742 15.8945C51.5742 12.2031 48.6035 10.0059 44.1914 10.0059H33.5566V34ZM39.3047 14.1191H42.7148C44.7363 14.1191 45.8965 15.209 45.8965 16.8965C45.8965 18.6016 44.7539 19.7617 42.0996 19.7617H39.3047V14.1191ZM39.3047 23.4883H42.9961C45.5273 23.4883 46.8105 24.7715 46.8105 26.7227C46.8105 28.6738 45.5273 29.8867 42.416 29.8867H39.3047V23.4883Z" fill="black"/>
<path d="M102.771 29.1484H93.1562V10.0059H87.3379V34H102.771V29.1484ZM110.225 34L111.789 28.498H119.207L120.754 34H126.941L119.26 10.0059H112.158L104.424 34H110.225ZM115.674 15.209L118.17 24.2969H112.861L115.41 15.209H115.674ZM134.816 34V19.6562H135.027L144.695 34H149.266V10.0059H143.887V24.209H143.693L134.043 10.0059H129.455V34H134.816ZM158.898 20.7637C158.898 16.6328 160.551 14.3828 163.451 14.3828C166.07 14.3828 167.635 16.2812 167.652 18.9004H173.207V18.2148C173.207 13.0293 169.111 9.58398 163.398 9.58398C156.719 9.58398 152.975 13.8906 152.975 20.7637V23.2949C152.975 30.1328 156.719 34.4395 163.398 34.4395C169.094 34.4395 173.207 31.0293 173.207 25.9492V25.2461H167.652C167.635 27.7773 166.07 29.6406 163.451 29.6406C160.551 29.6406 158.898 27.4082 158.898 23.3301V20.7637ZM192.93 29.3945H182.559V24.0508H192.279V19.7969H182.559V14.6113H192.93V10.0059H176.811V34H192.93V29.3945Z" fill="black"/>
</svg>
